<svg xmlns="http://www.w3.org/2000/svg" width="521.737" height="490.99" viewBox="0 0 521.737 490.99"><g transform="translate(0 -2.144)"><path d="M355.339,202.3,304.588,210.9a5.137,5.137,0,0,1-5.813-3.689c-3.667-13.234-11.333-30.5-3.89-39.164a14.238,14.238,0,0,1,15-12.741h0c9.066-14.192,24.167-12.061,34.374-3.2,10.272,3.544,14.145,9.841,12.79,18.386,4.437,3.884,6.764,8.259,7.255,13.062a18.863,18.863,0,0,1-5.161,14.674Z" transform="translate(-183.196 -142.909)" fill="#212121"/><path d="M351.546,259.651,312.2,257.337c3.856-8.85,5.4-17.372,3.857-25.458h29.315C345.308,238.088,348.4,248.828,351.546,259.651Z" transform="translate(-187.294 -160.304)" fill="#9f616a"/><path d="M301.771,721.059l-1.614,22.061a7.023,7.023,0,0,0,7.429,7.522l11.331-.686a3.582,3.582,0,0,0,3.258-4.444l-6.29-25.158Z" transform="translate(-184.877 -258.166)" fill="#212121"/><path d="M346.452,720.353l-6.29,25.159a3.582,3.582,0,0,0,3.258,4.444l11.331.686a7.023,7.023,0,0,0,7.429-7.522l-1.614-22.061Z" transform="translate(-192.874 -258.166)" fill="#212121"/><path d="M191.426,527.187l-15.291-1.535L160.911,362.923l-5.754,162.2-15.023-.538L114.813,299.944h96.74Z" transform="translate(-23.002 -61.231)" fill="#3AD289"/><circle cx="29.217" cy="29.217" r="29.217" transform="translate(114.98 22.507)" fill="#9f616a"/><path d="M362.374,184.781c-11.858-2.065-23.517-2.349-34.85.271-7.219,2.363-15.889,2.146-25.531.2v-19.7l52.053.938Z" transform="translate(-185.249 -147.015)" fill="#212121"/><path d="M349.3,231.135c-12.782,5.317-26.184,5.1-40.134,0,4.059-6.929-2.008-12.355-5.123-19.349l52.088-1.548C352.148,216.314,346.271,223.492,349.3,231.135Z" transform="translate(-185.659 -155.968)" fill="#fff"/><rect width="0.8" height="6.669" transform="translate(114.286 52.441) rotate(-50.195)" fill="#fff"/><rect width="16.701" height="0.8" transform="matrix(0.537, -0.844, 0.844, 0.537, 162.448, 74.548)" fill="#fff"/><rect width="0.8" height="16.701" transform="translate(115.057 60.889) rotate(-32.471)" fill="#fff"/><path d="M261.256,351.853l-22.372-13.886,19.079-55.879A26.361,26.361,0,0,1,269.486,268.4l6.427-3.721.559,56.372Z" transform="translate(-172.605 -166.875)" fill="#3AD289"/><path d="M362.454,375.9l-3.31-28.35c-.177-14.964,2.369-29.431,8.439-42.761l3.086-41.658-33.943-13.886c-.1.692-.193,1.383-.292,2.075l-15.908,7.954-15.515-3.526.086-4.96-30.858,13.886c10.2,47.442,4.639,96.709-12.91,154.9l40.652,11.116.338-19.52,36.23-2.588c.373,6.333.673,12.554.847,18.636,20.443,7.526,21.146,7.4,39.772-3.375A218.568,218.568,0,0,1,362.454,375.9Z" transform="translate(-177.102 -163.783)" fill="#3AD289"/><path d="M283.486,204.349l-20.829-6.943L229.34,158.621l10.173-32.958,46.287,64.8Z" transform="translate(-45.947 -26.315)" fill="#3AD289"/><path d="M371.383,399.823a5.794,5.794,0,0,0,6.921,4.365l17.681-4L393.43,388.9l-17.681,4A5.787,5.787,0,0,0,371.383,399.823Z" transform="translate(-199.122 -191.761)" fill="#e6e6e6"/><path d="M391.309,378.5l10.029,18.515c16.868-4.7,31.487-19.536,45.515-37.029L443,347.646l-23.915,6.172Z" transform="translate(-203.142 -183.497)" fill="#3AD289"/><path d="M71.79,172.661,91.043,176.1l44.006,62.571-23.378-5.5Z" transform="translate(-14.383 -35.73)" fill="#e6e6e6"/><path d="M223.116,312.65a1.638,1.638,0,0,0-1.344,2.537l41.134,62.41a1.632,1.632,0,0,0,.991.692l19.138,4.5a1.635,1.635,0,0,0,1.712-2.532l-45.163-64.215a1.626,1.626,0,0,0-1.05-.669l-15.11-2.7a1.769,1.769,0,0,0-.309-.028Z" transform="translate(-169.123 -176.486)" fill="#212121"/><path d="M255.608,368l1.143,11.515,18.04-1.791a5.786,5.786,0,0,0-1.143-11.515Z" transform="translate(-175.956 -187.209)" fill="#e6e6e6"/><path d="M235.991,364.366a14.881,14.881,0,0,0,14.863,14.782h2.966l2.16-18L238.1,354.714Z" transform="translate(-172.026 -184.913)" fill="#3AD289"/><path d="M211.257,69.932l-.565-.565.854-.854,5.1-5.955.607.52-5.123,5.977Z" transform="translate(-42.211 -13.672)" fill="#fff"/><rect width="521.737" height="1.599" transform="translate(0 491.535)" fill="#067a53"/><path d="M495,700.122H662.928V496.437c0-10.786-10.624-19.56-23.681-19.56H518.681c-13.058,0-23.682,8.774-23.682,19.56Z" transform="translate(-223.916 -209.387)" fill="#212121"/><path d="M511,698.112H653.339V525.463c0-9.142-9-16.579-20.073-16.579H531.073C520,508.884,511,516.322,511,525.463Z" transform="translate(-227.122 -215.799)" fill="#fff"/><path d="M491.528,457.053c-4.151,0-7.528,2.789-7.528,6.218v17.948c0,3.428,3.377,6.218,7.528,6.218H661.994c4.151,0,7.527-2.789,7.527-6.218V463.27c0-3.428-3.377-6.218-7.527-6.218Z" transform="translate(-221.712 -205.415)" fill="#212121"/><path d="M535.339,717.836a7.376,7.376,0,0,0-7.354,7.354h0a7.376,7.376,0,0,0,7.354,7.354H549.1V717.836Z" transform="translate(-230.524 -257.662)" fill="#212121"/><path d="M566.84,717.836H553.452v14.708H566.84a7.376,7.376,0,0,0,7.354-7.354h0A7.376,7.376,0,0,0,566.84,717.836Z" transform="translate(-235.627 -257.661)" fill="#3AD289"/><path d="M571.639,720.088a7.312,7.312,0,0,1,1.8,4.8h0a7.376,7.376,0,0,1-7.354,7.354H553.452V733H566.84a7.376,7.376,0,0,0,7.354-7.354h0a7.339,7.339,0,0,0-2.555-5.553Z" transform="translate(-235.627 -258.113)" opacity="0.2"/><path d="M611.68,578.734a7.376,7.376,0,0,0-10.4-.307h0a7.376,7.376,0,0,0-.307,10.4l9.442,10.017,10.7-10.089Z" transform="translate(-244.748 -229.332)" fill="#212121"/><path d="M632.525,600.891l-9.183-9.742-10.7,10.089,9.183,9.742a7.376,7.376,0,0,0,10.4.307h0a7.376,7.376,0,0,0,.307-10.4Z" transform="translate(-247.484 -232.281)" fill="#3AD289"/><path d="M634.505,608.017a7.313,7.313,0,0,1-2.256,4.6h0a7.376,7.376,0,0,1-10.4-.307l-8.667-9.193-.549.517,9.183,9.742a7.376,7.376,0,0,0,10.4.307h0A7.338,7.338,0,0,0,634.505,608.017Z" transform="translate(-247.484 -234.679)" opacity="0.2"/><path d="M562.68,607.733a7.376,7.376,0,0,0-10.4-.307h0a7.376,7.376,0,0,0-.307,10.4l9.442,10.017,10.7-10.089Z" transform="translate(-234.932 -235.142)" fill="#212121"/><path d="M583.525,629.891l-9.183-9.742-10.7,10.089,9.183,9.742a7.376,7.376,0,0,0,10.4.307h0A7.376,7.376,0,0,0,583.525,629.891Z" transform="translate(-237.667 -238.091)" fill="#3AD289"/><path d="M585.505,637.017a7.312,7.312,0,0,1-2.256,4.6h0a7.376,7.376,0,0,1-10.4-.307l-8.666-9.193-.549.517,9.183,9.742a7.376,7.376,0,0,0,10.4.307h0A7.338,7.338,0,0,0,585.505,637.017Z" transform="translate(-237.667 -240.489)" opacity="0.2"/><path d="M611.68,634.734a7.376,7.376,0,0,0-10.4-.307h0a7.376,7.376,0,0,0-.307,10.4l9.442,10.017,10.7-10.089Z" transform="translate(-244.748 -240.552)" fill="#212121"/><path d="M632.525,656.891l-9.183-9.742-10.7,10.089,9.183,9.742a7.376,7.376,0,0,0,10.4.307h0A7.376,7.376,0,0,0,632.525,656.891Z" transform="translate(-247.484 -243.5)" fill="#3AD289"/><path d="M634.505,664.017a7.313,7.313,0,0,1-2.256,4.6h0a7.376,7.376,0,0,1-10.4-.307l-8.666-9.193-.549.517,9.183,9.742a7.376,7.376,0,0,0,10.4.307h0A7.338,7.338,0,0,0,634.505,664.017Z" transform="translate(-247.484 -245.898)" opacity="0.2"/><path d="M639.713,689.612a7.376,7.376,0,0,0,.181-10.4h0a7.376,7.376,0,0,0-10.4-.181l-9.9,9.563,10.218,10.579Z" transform="translate(-248.878 -249.476)" fill="#212121"/><path d="M617.888,710.731l9.63-9.3L617.3,690.851l-9.629,9.3a7.376,7.376,0,0,0-.181,10.4h0A7.376,7.376,0,0,0,617.888,710.731Z" transform="translate(-246.041 -252.255)" fill="#3AD289"/><path d="M613.185,712.769a7.312,7.312,0,0,1-4.629-2.2h0a7.376,7.376,0,0,1,.181-10.4l9.088-8.777-.524-.543-9.63,9.3a7.376,7.376,0,0,0-.181,10.4h0A7.337,7.337,0,0,0,613.185,712.769Z" transform="translate(-246.041 -252.255)" opacity="0.2"/><path d="M573.713,660.612a7.376,7.376,0,0,0,.181-10.4h0a7.376,7.376,0,0,0-10.4-.181l-9.9,9.563,10.218,10.579Z" transform="translate(-235.655 -243.666)" fill="#212121"/><path d="M551.888,681.731l9.63-9.3L551.3,661.851l-9.629,9.3a7.376,7.376,0,0,0-.181,10.4h0A7.376,7.376,0,0,0,551.888,681.731Z" transform="translate(-232.818 -246.445)" fill="#3AD289"/><path d="M547.185,683.769a7.312,7.312,0,0,1-4.629-2.2h0a7.376,7.376,0,0,1,.181-10.4l9.088-8.777-.524-.543-9.63,9.3a7.376,7.376,0,0,0-.181,10.4h0A7.338,7.338,0,0,0,547.185,683.769Z" transform="translate(-232.818 -246.445)" opacity="0.2"/><path d="M667.713,625.611a7.376,7.376,0,0,0,.181-10.4h0a7.376,7.376,0,0,0-10.4-.181l-9.9,9.563,10.218,10.579Z" transform="translate(-254.487 -236.654)" fill="#212121"/><path d="M645.888,646.731l9.63-9.3L645.3,626.851l-9.63,9.3a7.376,7.376,0,0,0-.181,10.4h0A7.376,7.376,0,0,0,645.888,646.731Z" transform="translate(-251.65 -239.433)" fill="#3AD289"/><path d="M641.185,648.769a7.311,7.311,0,0,1-4.629-2.2h0a7.376,7.376,0,0,1,.181-10.4l9.087-8.777-.524-.543-9.63,9.3a7.376,7.376,0,0,0-.181,10.4h0A7.338,7.338,0,0,0,641.185,648.769Z" transform="translate(-251.65 -239.433)" opacity="0.2"/><path d="M648.68,700.734a7.376,7.376,0,0,0-10.4-.307h0a7.376,7.376,0,0,0-.307,10.4l9.442,10.017,10.7-10.089Z" transform="translate(-252.161 -253.774)" fill="#212121"/><path d="M669.525,722.891l-9.183-9.742-10.7,10.089,9.183,9.742a7.376,7.376,0,0,0,10.4.307h0a7.376,7.376,0,0,0,.307-10.4Z" transform="translate(-254.897 -256.722)" fill="#3AD289"/><path d="M671.505,730.017a7.312,7.312,0,0,1-2.257,4.6h0a7.376,7.376,0,0,1-10.4-.307l-8.667-9.193-.549.517,9.184,9.742a7.376,7.376,0,0,0,10.4.307h0A7.339,7.339,0,0,0,671.505,730.017Z" transform="translate(-254.896 -259.121)" opacity="0.2"/><path d="M583.68,699.734a7.376,7.376,0,0,0-10.4-.307h0a7.376,7.376,0,0,0-.307,10.4l9.442,10.017,10.7-10.089Z" transform="translate(-239.139 -253.574)" fill="#212121"/><path d="M604.525,721.891l-9.184-9.742-10.7,10.089,9.183,9.742a7.376,7.376,0,0,0,10.4.307h0A7.376,7.376,0,0,0,604.525,721.891Z" transform="translate(-241.874 -256.522)" fill="#3AD289"/><path d="M606.505,729.017a7.312,7.312,0,0,1-2.257,4.6h0a7.376,7.376,0,0,1-10.4-.307l-8.667-9.193-.549.517,9.184,9.742a7.376,7.376,0,0,0,10.4.307h0A7.338,7.338,0,0,0,606.505,729.017Z" transform="translate(-241.874 -258.92)" opacity="0.2"/><path d="M599.844,664.659a10.606,10.606,0,1,1-8.485-10.394,10.607,10.607,0,0,1,8.485,10.394Z" transform="translate(-240.671 -244.883)" fill="#3AD289"/><path d="M593.484,654.265v20.788a10.712,10.712,0,0,1-4.242,0V654.265A10.712,10.712,0,0,1,593.484,654.265Z" transform="translate(-242.797 -244.883)" opacity="0.2"/><path d="M605.844,611.659a10.606,10.606,0,1,1-12.728-10.394,10.716,10.716,0,0,1,4.242,0A10.606,10.606,0,0,1,605.844,611.659Z" transform="translate(-241.873 -234.265)" fill="#3AD289"/><path d="M599.484,601.265v20.788a10.71,10.71,0,0,1-4.242,0V601.265a10.709,10.709,0,0,1,4.242,0Z" transform="translate(-243.999 -234.265)" opacity="0.2"/><path d="M605.844,687.659a10.607,10.607,0,0,1-8.487,10.395,10.608,10.608,0,1,1,0-20.788A10.606,10.606,0,0,1,605.844,687.659Z" transform="translate(-241.873 -249.491)" fill="#3AD289"/><path d="M599.484,677.265v20.788a10.707,10.707,0,0,1-4.242,0V677.265a10.711,10.711,0,0,1,4.242,0Z" transform="translate(-243.999 -249.491)" opacity="0.2"/><path d="M638.844,724.659a10.606,10.606,0,1,1-12.728-10.394,10.714,10.714,0,0,1,4.242,0A10.606,10.606,0,0,1,638.844,724.659Z" transform="translate(-248.484 -256.904)" fill="#3AD289"/><path d="M632.484,714.265v20.788a10.714,10.714,0,0,1-4.242,0V714.265A10.716,10.716,0,0,1,632.484,714.265Z" transform="translate(-250.61 -256.904)" opacity="0.2"/><path d="M668.809,658.5a10.606,10.606,0,1,1-13.372-1.1A10.606,10.606,0,0,1,668.809,658.5Z" transform="translate(-255.138 -245.178)" fill="#3AD289"/><path d="M655.85,657.86l14.967,14.426a10.708,10.708,0,0,1-2.944,3.055l-14.967-14.426A10.712,10.712,0,0,1,655.85,657.86Z" transform="translate(-255.551 -245.646)" opacity="0.2"/><path d="M672.809,687.5a10.606,10.606,0,1,1-16.316,1.951,10.713,10.713,0,0,1,2.944-3.055,10.606,10.606,0,0,1,13.372,1.1Z" transform="translate(-255.939 -250.988)" fill="#3AD289"/><path d="M659.85,686.86l14.967,14.426a10.71,10.71,0,0,1-2.944,3.055l-14.967-14.426A10.713,10.713,0,0,1,659.85,686.86Z" transform="translate(-256.353 -251.456)" opacity="0.2"/><path d="M553.809,694.5a10.606,10.606,0,1,1-13.372-1.1A10.606,10.606,0,0,1,553.809,694.5Z" transform="translate(-232.098 -252.39)" fill="#3AD289"/><path d="M540.85,693.86l14.967,14.426a10.706,10.706,0,0,1-2.944,3.055l-14.967-14.426A10.711,10.711,0,0,1,540.85,693.86Z" transform="translate(-232.512 -252.858)" opacity="0.2"/><rect width="3.998" height="29.587" transform="translate(283.479 251.637)" opacity="0.2"/><rect width="3.998" height="29.587" transform="translate(306.669 251.637)" opacity="0.2"/><rect width="3.998" height="29.587" transform="translate(329.859 251.637)" opacity="0.2"/><rect width="3.998" height="29.587" transform="translate(353.049 251.637)" opacity="0.2"/><rect width="3.998" height="29.587" transform="translate(376.239 251.637)" opacity="0.2"/><rect width="3.998" height="29.587" transform="translate(399.429 251.637)" opacity="0.2"/><rect width="3.998" height="29.587" transform="translate(422.619 251.637)" opacity="0.2"/></g></svg>