<svg xmlns="http://www.w3.org/2000/svg" width="150" height="49" viewBox="0 0 150 49"><g transform="translate(494 -458)"><text transform="translate(-494 494)" fill="#067a53" font-size="28" font-family="Pacifico-Regular, Pacifico"><tspan x="0" y="0">TabletOrder</tspan></text><path d="M3.107,3.729A3.132,3.132,0,0,0,0,6.344a.161.161,0,0,0,.161.181H6.053a.161.161,0,0,0,.161-.181A3.136,3.136,0,0,0,3.107,3.729ZM6.051,7.146H.163A.161.161,0,0,0,0,7.327a3.132,3.132,0,0,0,3.1,2.616,3.132,3.132,0,0,0,3.1-2.616A.161.161,0,0,0,6.051,7.146ZM11.523.905A3.1,3.1,0,0,0,7.505.594.158.158,0,0,0,7.49.833l4.1,4.1a.158.158,0,0,0,.239-.016A3.1,3.1,0,0,0,11.523.905Zm-4.474.371a.158.158,0,0,0-.239.016,3.1,3.1,0,0,0,4.326,4.326.158.158,0,0,0,.016-.239Z" transform="translate(-415.446 483.654) rotate(-47)" fill="#067a53"/></g></svg>