<svg xmlns="http://www.w3.org/2000/svg" width="101.8" height="120.224" viewBox="0 0 101.8 120.224"><g transform="translate(0 0)"><path d="M514.624,357.965l1.007,19.334s-42.594-40.54-47.9-52.4,4.682-41.2,4.682-41.2l22.162,12.174Z" transform="translate(-442.228 -257.076)" fill="#9f616a"/><path d="M354.352,243.4l-6.555.624s-3.434,7.492,7.179,8.116Z" transform="translate(-347.267 -224.893)" fill="#9f616a"/><path d="M354.352,300.743l-6.555.624s-3.434,7.492,7.179,8.116Z" transform="translate(-347.267 -270.691)" fill="#9f616a"/><path d="M354.352,362.739l-6.555.624s-3.434,7.492,7.179,8.116Z" transform="translate(-347.267 -320.201)" fill="#9f616a"/><path d="M363.652,424.735l-6.555.624s-3.434,7.492,7.179,8.116Z" transform="translate(-354.694 -369.711)" fill="#9f616a"/><path d="M366.6,173.04h.5V159.414a7.886,7.886,0,0,1,7.886-7.886h28.868a7.886,7.886,0,0,1,7.886,7.886v74.751a7.886,7.886,0,0,1-7.886,7.886H374.984a7.886,7.886,0,0,1-7.886-7.886V182.738h-.5Z" transform="translate(-362.706 -151.527)" fill="#212121"/><path d="M383.294,161.715h3.768a2.8,2.8,0,0,0,2.591,3.855h16.538a2.8,2.8,0,0,0,2.591-3.855h3.52a5.889,5.889,0,0,1,5.889,5.889v74.642a5.889,5.889,0,0,1-5.889,5.889H383.294a5.889,5.889,0,0,1-5.889-5.889h0V167.6a5.889,5.889,0,0,1,5.889-5.889Z" transform="translate(-371.335 -159.663)" fill="#fff"/><rect width="12.429" height="2.999" transform="translate(20.248 22.963)" fill="#3AD289"/><rect width="13.613" height="2.999" transform="translate(19.656 35.851)" fill="#e5e5e5"/><rect width="30.382" height="2.999" transform="translate(11.271 42.294)" fill="#e5e5e5"/><rect width="30.382" height="2.999" transform="translate(11.271 48.737)" fill="#e5e5e5"/><path d="M624.987,319.145l-34.938-39.86-1.249-25.6-13.11-21.85-3.746-9.364s-8.74.936-1.561,18.729l2.965,9.52h0a43.637,43.637,0,0,0-4.058,18.376v21.816c0,5.137,24.48,33.118,27.329,37.393h0Z" transform="translate(-523.187 -208.185)" fill="#9f616a"/><path d="M232.468,87.741l2.606-1.281-.089-.181-2.408,1.184-3.635-9.531-.188.072Z" transform="translate(-182.684 -62.236)" opacity="0.2"/><rect width="0.201" height="4.115" transform="translate(0.495 19.221) rotate(-69.778)" opacity="0.2"/><rect width="0.201" height="4.115" transform="translate(0.495 30.902) rotate(-69.778)" opacity="0.2"/><rect width="0.201" height="4.115" transform="translate(0.495 43.389) rotate(-69.778)" opacity="0.2"/><rect width="0.201" height="2.085" transform="translate(2.501 55.872) rotate(-64.361)" opacity="0.2"/><circle cx="8.706" cy="8.706" r="8.706" transform="translate(17.771 60.207)" fill="#3AD289"/><path d="M117.019,331.307l-2.606-3.351,1.515-1.179,1.234,1.586,4.168-4.4,1.394,1.321Z" transform="translate(-91.371 -258.718)" fill="#fff"/></g></svg>