<svg xmlns="http://www.w3.org/2000/svg" width="129.553" height="118.164" viewBox="0 0 129.553 118.164"><g transform="translate(-0.002 -0.001)"><rect width="113.068" height="10.279" transform="translate(3.097 42.494) rotate(-16.244)" fill="#212121"/><path d="M332.137,279.312l-16-54.915a1.6,1.6,0,0,1,1.088-1.982l105.923-30.861a1.6,1.6,0,0,1,1.982,1.088L439.3,241.292l-.439.128-14.175-48.651a1.144,1.144,0,0,0-1.416-.777L317.353,222.853a1.142,1.142,0,0,0-.777,1.416l16,54.915Z" transform="translate(-316.071 -191.488)" fill="#212121"/><path d="M738.851,360.3a1.487,1.487,0,0,1-1.426-1.07l-2.684-9.211a1.487,1.487,0,0,1,1.01-1.841l9.211-2.684a1.486,1.486,0,0,1,1.841,1.01l2.684,9.211a1.487,1.487,0,0,1-1.01,1.841l-9.211,2.684A1.48,1.48,0,0,1,738.851,360.3Z" transform="translate(-639.061 -310.271)" fill="#3AD289"/><path d="M367.166,329.625a2.68,2.68,0,0,0-.1-.279,2.741,2.741,0,0,0-5.233,1.524,2.6,2.6,0,0,0,.066.288,2.745,2.745,0,0,0,2.634,1.974,2.684,2.684,0,0,0,.765-.11A2.744,2.744,0,0,0,367.166,329.625Zm-1.994,2.958a2.287,2.287,0,0,1-2.832-1.553,2.609,2.609,0,0,1-.064-.288,2.283,2.283,0,0,1,4.349-1.265,1.908,1.908,0,0,1,.1.276,2.285,2.285,0,0,1-1.556,2.83Z" transform="translate(-351.347 -296.546)" fill="#3AD289"/><path d="M350.231,335.557a2.513,2.513,0,0,1,.961-2.754,2.513,2.513,0,1,0,1.329,4.561A2.513,2.513,0,0,1,350.231,335.557Z" transform="translate(-341.135 -300.52)" fill="#3AD289"/><path d="M604.257,391.017a1.38,1.38,0,0,0-1.7-.959L587.39,394.3l-1.633.457h10.256l1.633-.457,5.653-1.581a1.382,1.382,0,0,0,.957-1.7Z" transform="translate(-524.154 -344.66)" fill="#ccc"/><path d="M533.758,377.153a1.381,1.381,0,0,0-1.7-.957L509.3,382.56a1.386,1.386,0,0,0-1,1.5h5.891l1.635-.457,16.972-4.747A1.383,1.383,0,0,0,533.758,377.153Z" transform="translate(-464.384 -333.965)" fill="#ccc"/><path d="M498.167,408.8H387.84a1.6,1.6,0,0,0-1.6,1.6v65.328a1.6,1.6,0,0,0,1.6,1.6H498.167a1.6,1.6,0,0,0,1.6-1.6V410.4a1.6,1.6,0,0,0-1.6-1.6Zm1.142,66.927a1.143,1.143,0,0,1-1.142,1.142H387.84a1.142,1.142,0,0,1-1.142-1.142V410.4a1.143,1.143,0,0,1,1.142-1.142H498.167a1.143,1.143,0,0,1,1.142,1.142Z" transform="translate(-370.211 -359.159)" fill="#212121"/><path d="M430.978,429.282a2.741,2.741,0,1,1,2.741-2.741A2.741,2.741,0,0,1,430.978,429.282Zm0-5.025a2.284,2.284,0,1,0,2.284,2.284A2.284,2.284,0,0,0,430.978,424.257Z" transform="translate(-402.615 -370.734)" fill="#3AD289"/><path d="M416.048,427.312a2.513,2.513,0,0,1,1.693-2.375,2.513,2.513,0,1,0,0,4.75A2.513,2.513,0,0,1,416.048,427.312Z" transform="translate(-391.945 -371.506)" fill="#3AD289"/><path d="M481.937,542.857a2.058,2.058,0,0,1-2.056-2.056v-6.167a2.056,2.056,0,0,1,4.112,0V540.8A2.058,2.058,0,0,1,481.937,542.857Z" transform="translate(-442.462 -454.665)" fill="#3AD289"/><path d="M505.937,542.857a2.058,2.058,0,0,1-2.056-2.056v-6.167a2.056,2.056,0,0,1,4.112,0V540.8A2.058,2.058,0,0,1,505.937,542.857Z" transform="translate(-460.98 -454.665)" fill="#3AD289"/><path d="M529.937,542.857a2.058,2.058,0,0,1-2.056-2.056v-6.167a2.056,2.056,0,0,1,4.112,0V540.8A2.058,2.058,0,0,1,529.937,542.857Z" transform="translate(-479.498 -454.665)" fill="#3AD289"/><path d="M566.937,542.857a2.058,2.058,0,0,1-2.056-2.056v-6.167a2.056,2.056,0,0,1,4.111,0V540.8A2.058,2.058,0,0,1,566.937,542.857Z" transform="translate(-508.047 -454.665)" fill="#3AD289"/><path d="M590.937,542.857a2.058,2.058,0,0,1-2.056-2.056v-6.167a2.056,2.056,0,0,1,4.112,0V540.8A2.058,2.058,0,0,1,590.937,542.857Z" transform="translate(-526.564 -454.665)" fill="#3AD289"/><path d="M614.937,542.857a2.058,2.058,0,0,1-2.056-2.056v-6.167a2.056,2.056,0,0,1,4.112,0V540.8a2.058,2.058,0,0,1-2.056,2.056Z" transform="translate(-545.082 -454.665)" fill="#3AD289"/><path d="M651.937,542.857a2.058,2.058,0,0,1-2.056-2.056v-6.167a2.056,2.056,0,0,1,4.112,0V540.8A2.058,2.058,0,0,1,651.937,542.857Z" transform="translate(-573.631 -454.665)" fill="#3AD289"/><path d="M675.937,542.857a2.058,2.058,0,0,1-2.056-2.056v-6.167a2.056,2.056,0,0,1,4.112,0V540.8A2.058,2.058,0,0,1,675.937,542.857Z" transform="translate(-592.149 -454.665)" fill="#3AD289"/><path d="M699.937,542.857a2.058,2.058,0,0,1-2.056-2.056v-6.167a2.056,2.056,0,0,1,4.112,0V540.8A2.058,2.058,0,0,1,699.937,542.857Z" transform="translate(-610.667 -454.665)" fill="#3AD289"/><path d="M736.937,542.857a2.058,2.058,0,0,1-2.056-2.056v-6.167a2.056,2.056,0,0,1,4.112,0V540.8A2.058,2.058,0,0,1,736.937,542.857Z" transform="translate(-639.215 -454.665)" fill="#3AD289"/><path d="M760.937,542.857a2.058,2.058,0,0,1-2.056-2.056v-6.167a2.056,2.056,0,0,1,4.112,0V540.8A2.058,2.058,0,0,1,760.937,542.857Z" transform="translate(-657.733 -454.665)" fill="#3AD289"/><path d="M784.937,542.857a2.058,2.058,0,0,1-2.056-2.056v-6.167a2.056,2.056,0,0,1,4.112,0V540.8A2.058,2.058,0,0,1,784.937,542.857Z" transform="translate(-676.251 -454.665)" fill="#3AD289"/><path d="M445.36,668.413H415.793a1.381,1.381,0,1,1,0-2.763H445.36a1.381,1.381,0,1,1,0,2.763Z" transform="translate(-391.947 -557.341)" fill="#e6e6e6"/><path d="M467.9,642.413H457.293a1.381,1.381,0,1,1,0-2.763H467.9a1.381,1.381,0,0,1,0,2.763Z" transform="translate(-423.968 -537.28)" fill="#e6e6e6"/><rect width="112.611" height="0.457" transform="translate(16.404 63.294)" fill="#212121"/></g></svg>