<svg xmlns="http://www.w3.org/2000/svg" width="154.209" height="100.685" viewBox="0 0 154.209 100.685"><path d="M747.309,689.009l-.192-.285q.426-.287.846-.582l.2.281Q747.738,688.72,747.309,689.009Z" transform="translate(-644.735 -596.881)" fill="#ccc"/><path d="M355.1,577.324l0-.344c.695,0,1.4-.024,2.088-.058l.017.343C356.508,577.3,355.8,577.319,355.1,577.324ZM353,577.3c-.7-.024-1.4-.062-2.1-.115l.026-.343c.691.052,1.392.09,2.085.114Zm6.3-.175-.031-.342c.69-.062,1.388-.139,2.075-.23l.045.341c-.692.091-1.395.169-2.089.232Zm-10.493-.141c-.695-.081-1.4-.179-2.083-.289l.054-.339c.683.109,1.379.206,2.068.287Zm14.66-.409-.059-.338c.682-.119,1.371-.255,2.049-.4l.073.336c-.682.149-1.376.285-2.063.405Zm-18.811-.254c-.684-.139-1.374-.294-2.051-.462l.082-.334c.673.166,1.358.321,2.037.459Zm22.918-.643-.087-.332c.67-.176,1.345-.369,2.008-.573l.1.328c-.667.206-1.347.4-2.022.577Zm-27-.368c-.67-.2-1.346-.41-2.009-.634l.11-.326c.658.223,1.33.435,2,.63Zm31.02-.871-.115-.324c.653-.232,1.31-.481,1.952-.74l.128.319c-.647.261-1.308.512-1.966.745Zm-35.01-.482c-.652-.252-1.308-.522-1.948-.8l.137-.315c.636.277,1.286.545,1.934.8Zm38.909-1.091-.142-.313c.632-.286,1.266-.59,1.884-.9l.155.307c-.622.314-1.26.619-1.9.908Zm-42.768-.592c-.628-.306-1.258-.629-1.873-.961l.163-.3c.611.33,1.236.651,1.86.955Zm46.522-1.3-.168-.3c.605-.338,1.212-.693,1.8-1.056l.18.293C380.462,570.269,379.852,570.627,379.243,570.967Zm-50.225-.7c-.6-.357-1.2-.732-1.785-1.114l.188-.288c.581.38,1.178.752,1.773,1.106Zm-3.522-2.3c-.567-.406-1.135-.829-1.686-1.259l.211-.271c.547.427,1.111.847,1.674,1.25Zm-3.317-2.586c-.533-.452-1.063-.921-1.575-1.394l.233-.253c.509.47,1.035.935,1.564,1.384Zm-3.09-2.852c-.493-.494-.982-1.005-1.453-1.519l.253-.232c.468.51.954,1.018,1.444,1.509Zm-2.842-3.1c-.449-.533-.894-1.082-1.322-1.634l.272-.211c.425.548.867,1.094,1.313,1.623Zm-2.575-3.321c-.4-.569-.8-1.153-1.181-1.738l.288-.187c.377.581.772,1.161,1.173,1.726Zm-2.289-3.523c-.355-.6-.7-1.216-1.032-1.829l.3-.163c.327.61.672,1.221,1.025,1.817Zm-1.986-3.7c-.3-.627-.6-1.269-.875-1.909l.315-.137c.275.635.567,1.273.869,1.9Zm-1.669-3.851c-.25-.651-.49-1.316-.712-1.976l.326-.11c.221.656.459,1.316.707,1.962Z" transform="translate(-280.251 -476.638)" fill="#3AD289"/><path d="M301.982,526.576q-.144-.5-.278-1l.332-.089q.133.5.276.99Z" transform="translate(-275.853 -462.178)" fill="#ccc"/><path d="M873.344,412.26q-.057-.511-.124-1.02l.341-.045q.068.512.125,1.027Z" transform="translate(-749.17 -367.52)" fill="#ccc"/><path d="M846.578,454.7l-.309-.151c.3-.6.582-1.221.853-1.836l.315.138C847.164,453.47,846.875,454.091,846.578,454.7Zm1.641-3.73-.32-.125c.245-.625.481-1.264.7-1.9l.325.112c-.221.639-.458,1.283-.706,1.912Zm1.332-3.851-.329-.1c.194-.644.377-1.3.543-1.95l.333.086C849.931,445.808,849.747,446.468,849.552,447.117Zm1.014-3.948-.336-.072c.14-.657.269-1.326.383-1.988l.339.058C850.837,441.835,850.707,442.508,850.566,443.169Zm.689-4.017-.341-.044c.087-.665.161-1.342.221-2.013l.342.031C851.417,437.8,851.342,438.482,851.255,439.152Zm.363-4.06-.343-.017c.033-.67.052-1.351.059-2.024l.344,0c-.006.678-.026,1.363-.059,2.038Zm-.307-4.066c-.021-.672-.055-1.352-.1-2.021l.343-.024c.048.674.083,1.359.1,2.035Z" transform="translate(-726.851 -382.25)" fill="#3AD289"/><path d="M838.3,589.291l-.3-.17q.253-.446.5-.9l.3.163Q838.551,588.842,838.3,589.291Z" transform="translate(-720 -514.131)" fill="#ccc"/><path d="M320.428,319.742l-.31-.148q.223-.467.455-.929l.307.154Q320.649,319.278,320.428,319.742Z" transform="translate(-291.103 -290.888)" fill="#ccc"/><path d="M328.688,183.119l-.3-.167c.333-.6.683-1.2,1.041-1.787l.293.179C329.366,181.926,329.019,182.523,328.688,183.119Zm86.609-1.534c-.351-.583-.719-1.167-1.1-1.736l.287-.189c.378.573.749,1.161,1.1,1.748Zm-84.47-1.973-.286-.191c.381-.571.78-1.142,1.184-1.7l.278.2c-.4.551-.8,1.118-1.176,1.685Zm82.209-1.454c-.4-.553-.813-1.105-1.234-1.641l.27-.212c.423.54.841,1.1,1.242,1.652Zm-79.79-1.866-.269-.214c.427-.538.87-1.074,1.318-1.593l.26.225c-.445.516-.885,1.048-1.309,1.583Zm77.256-1.365c-.442-.519-.9-1.036-1.364-1.535l.252-.233c.466.5.927,1.023,1.373,1.546Zm-74.574-1.746-.251-.235c.469-.5.954-1,1.444-1.48l.241.245C336.877,172.191,336.394,172.686,335.929,173.183Zm71.785-1.268c-.483-.481-.982-.958-1.485-1.419l.232-.253c.506.464,1.009.945,1.495,1.429ZM338.855,170.3l-.231-.255c.508-.461,1.033-.917,1.559-1.357l.22.264C339.881,169.391,339.36,169.844,338.855,170.3Zm65.832-1.163c-.521-.44-1.058-.875-1.6-1.293l.211-.271c.542.421,1.082.859,1.607,1.3Zm-62.681-1.469-.209-.272c.544-.418,1.1-.83,1.665-1.225l.2.281c-.557.393-1.114.8-1.654,1.217Zm59.437-1.052c-.555-.4-1.126-.786-1.7-1.159l.188-.288c.575.375,1.149.768,1.708,1.167ZM345.362,165.3l-.186-.289c.576-.372,1.168-.737,1.759-1.085l.174.3C346.522,164.573,345.934,164.936,345.362,165.3ZM398,164.371c-.585-.349-1.186-.691-1.786-1.016l.164-.3c.6.327,1.209.671,1.8,1.023ZM348.9,163.223l-.162-.3c.605-.324,1.225-.639,1.842-.936l.149.309c-.613.3-1.228.609-1.829.93Zm45.493-.809c-.614-.3-1.241-.592-1.864-.865l.138-.315c.627.276,1.259.569,1.877.871Zm-41.8-.974-.136-.315c.629-.272,1.272-.535,1.912-.781l.123.321C353.858,160.908,353.219,161.169,352.594,161.439Zm38.034-.679c-.635-.248-1.285-.487-1.93-.709l.112-.325c.65.223,1.3.464,1.943.713Zm-34.206-.794-.11-.326c.65-.22,1.313-.428,1.97-.62l.1.33c-.652.191-1.31.4-1.956.616Zm30.317-.543c-.654-.195-1.321-.379-1.983-.547l.084-.333c.666.169,1.338.354,2,.55Zm-26.382-.608-.083-.334c.666-.165,1.343-.318,2.013-.455l.069.337c-.666.136-1.338.288-2,.452Zm22.395-.4c-.665-.14-1.344-.267-2.018-.38l.057-.339c.679.113,1.362.242,2.032.383Zm-18.375-.42-.055-.339c.677-.11,1.366-.207,2.047-.288l.041.341c-.677.081-1.361.178-2.033.287Zm14.325-.257c-.675-.084-1.362-.156-2.042-.213l.029-.342c.685.057,1.377.129,2.056.215Zm-10.248-.233-.027-.343c.684-.054,1.378-.094,2.064-.12l.013.343c-.681.026-1.371.066-2.05.12Zm6.157-.11c-.68-.029-1.371-.045-2.053-.046V157c.686,0,1.382.017,2.067.047Z" transform="translate(-297.952 -157.004)" fill="#3AD289"/><path d="M840.686,310.625q-.237-.456-.484-.906l.3-.165q.248.453.487.912Z" transform="translate(-721.826 -283.343)" fill="#ccc"/><path d="M242.482,353H239.3v26.89a2.581,2.581,0,0,1-2.577,2.577H184.75v2.32a2.925,2.925,0,0,0,2.921,2.921h54.811a2.925,2.925,0,0,0,2.921-2.921V355.924A2.925,2.925,0,0,0,242.482,353Z" transform="translate(-178.994 -319.326)" fill="#3AD289"/><path d="M208.982,324.5H154.171a2.925,2.925,0,0,0-2.921,2.921V356.29a2.925,2.925,0,0,0,2.921,2.921h54.811a2.925,2.925,0,0,0,2.921-2.921V327.424A2.925,2.925,0,0,0,208.982,324.5Zm2.577,31.787a2.581,2.581,0,0,1-2.577,2.577H154.171a2.58,2.58,0,0,1-2.577-2.577V327.424a2.58,2.58,0,0,1,2.577-2.577h54.811a2.58,2.58,0,0,1,2.577,2.577Z" transform="translate(-151.25 -295.723)" fill="#3AD289"/><path d="M363.809,435.252H344.566a1.375,1.375,0,1,1,0-2.749h19.244a1.375,1.375,0,1,1,0,2.749Z" transform="translate(-310.212 -385.167)" fill="#ccc"/><path d="M351.782,401.252h-7.216a1.375,1.375,0,1,1,0-2.749h7.216a1.375,1.375,0,1,1,0,2.749Z" transform="translate(-310.212 -357.009)" fill="#ccc"/><path d="M209.236,380.84H191.71a1.462,1.462,0,0,1-1.46-1.46V359.963a1.462,1.462,0,0,1,1.46-1.46h17.526a1.462,1.462,0,0,1,1.46,1.46v19.416A1.462,1.462,0,0,1,209.236,380.84Z" transform="translate(-183.549 -323.881)" fill="#3AD289"/><path d="M243.518,445.786a2.151,2.151,0,0,1-1.238-.295.951.951,0,0,1-.374-.71.639.639,0,0,1,.217-.525.825.825,0,0,1,.781-.112l-.315-2.306.232-.032.371,2.71-.193-.089a.708.708,0,0,0-.723.006.411.411,0,0,0-.135.338.719.719,0,0,0,.278.529,1.933,1.933,0,0,0,1.106.25Z" transform="translate(-226.329 -392.871)" fill="#f8f8f8"/><rect width="1.259" height="0.234" transform="translate(13.856 49.165)" fill="#f8f8f8"/><rect width="1.259" height="0.234" transform="translate(17.83 49.165)" fill="#f8f8f8"/><path d="M208.34,393.426a2.3,2.3,0,0,1-1.885-2.073,3.37,3.37,0,0,1,1.517-2.944,6.477,6.477,0,0,1,3.381-1.039,9.293,9.293,0,0,1,6.352,2.094,5.86,5.86,0,0,1,2.025,2.8,2.714,2.714,0,0,1-.739,2.783,1.867,1.867,0,0,1-1.433.441,3.561,3.561,0,0,1-1.668-.742A10.711,10.711,0,0,0,213,392.729a2.25,2.25,0,0,0-2.474.737,1.4,1.4,0,0,0-.224.587.182.182,0,0,0,.122.216.176.176,0,0,0,.216-.122c.136-.969,1.328-1.33,2.164-1.109,1.219.323,2.037,1.41,3.037,2.1a3.691,3.691,0,0,0,1.769.706,2.2,2.2,0,0,0,1.543-.474,3,3,0,0,0,.992-2.88,5.652,5.652,0,0,0-1.926-3.049,9.636,9.636,0,0,0-6.585-2.433,7.2,7.2,0,0,0-3.59.937,3.92,3.92,0,0,0-1.935,2.926,2.762,2.762,0,0,0,1.489,2.694,2.331,2.331,0,0,0,.747.211c.224.026.222-.325,0-.351Z" transform="translate(-196.671 -347.488)" fill="#f8f8f8"/><path d="M670.32,618h-2.76v8.99a2.925,2.925,0,0,1-2.921,2.921H595.75v1.32a3.268,3.268,0,0,0,3.265,3.265H670.32a3.268,3.268,0,0,0,3.265-3.265v-9.966A3.268,3.268,0,0,0,670.32,618Z" transform="translate(-519.376 -538.794)" fill="#3AD289"/><path d="M637.26,593.323H565.954a3.267,3.267,0,0,0-3.265,3.265v9.966a3.267,3.267,0,0,0,3.265,3.265H637.26a3.268,3.268,0,0,0,3.265-3.265v-9.966A3.268,3.268,0,0,0,637.26,593.323Zm2.921,13.23a2.925,2.925,0,0,1-2.921,2.921H565.954a2.925,2.925,0,0,1-2.921-2.921v-9.966a2.925,2.925,0,0,1,2.921-2.921H637.26a2.925,2.925,0,0,1,2.921,2.921Z" transform="translate(-491.996 -518.355)" fill="#3AD289"/><path d="M628.019,609.326a5.5,5.5,0,1,0,5.5,5.5A5.5,5.5,0,0,0,628.019,609.326Z" transform="translate(-541.547 -531.608)" fill="#3AD289"/><path d="M751.581,655.075H712.234a1.375,1.375,0,0,1,0-2.749h39.347a1.375,1.375,0,1,1,0,2.749Z" transform="translate(-614.707 -567.22)" fill="#ccc"/><path d="M731.822,621.075H712.234a1.375,1.375,0,0,1,0-2.749h19.588a1.375,1.375,0,0,1,0,2.749Z" transform="translate(-614.707 -539.062)" fill="#ccc"/><path d="M642.02,632.167a.654.654,0,0,1-.394-.131l-.007-.005-1.484-1.135a.66.66,0,1,1,.8-1.047l.961.737,2.271-2.964a.659.659,0,0,1,.924-.122h0l-.014.02.015-.02a.66.66,0,0,1,.122.925l-2.672,3.484a.66.66,0,0,1-.525.257Z" transform="translate(-555.92 -546.547)" fill="#fff"/><path d="M790.207,333h-.364q.01.111.01.227V343.2a2.925,2.925,0,0,1-2.921,2.921H752.75v.117c0,.076,0,.151.009.227a3.265,3.265,0,0,0,3.256,3.038h34.192a3.268,3.268,0,0,0,3.265-3.265v-9.966A3.268,3.268,0,0,0,790.207,333Z" transform="translate(-649.4 -302.763)" fill="#3AD289"/><path d="M774.4,318.361a3.265,3.265,0,0,0-3.256-3.038H736.954a3.268,3.268,0,0,0-3.265,3.265v9.966a3.267,3.267,0,0,0,3.265,3.265h34.192a3.268,3.268,0,0,0,3.265-3.265v-9.966C774.411,318.512,774.408,318.436,774.4,318.361Zm-.335,10.192a2.925,2.925,0,0,1-2.921,2.921H736.954a2.925,2.925,0,0,1-2.921-2.921v-9.966a2.925,2.925,0,0,1,2.921-2.921h34.192a2.924,2.924,0,0,1,2.911,2.694q.01.111.01.227Z" transform="translate(-633.615 -288.121)" fill="#3AD289"/><path d="M813.4,375.075H796.565a1.375,1.375,0,1,1,0-2.749H813.4a1.375,1.375,0,1,1,0,2.749Z" transform="translate(-684.549 -335.329)" fill="#ccc"/><path d="M808.249,341.075H796.565a1.375,1.375,0,1,1,0-2.749h11.684a1.375,1.375,0,0,1,0,2.749Z" transform="translate(-684.549 -307.171)" fill="#ccc"/></svg>