<svg xmlns="http://www.w3.org/2000/svg" width="152.511" height="103.205" viewBox="0 0 152.511 103.205"><g transform="translate(0 0)"><path d="M654.215,215.388c-.16.132-.32.257-.484.381H613.3q-.452-.186-.9-.381a47.616,47.616,0,0,1-11.793-7.342,48.3,48.3,0,0,1-6.1-5.993,25.59,25.59,0,0,1-5.154-8.985c-.938-3.349-.658-7.188,1.437-9.965a8.919,8.919,0,0,1,2.354-2.156c.151-.1.3-.187.459-.273a11.729,11.729,0,0,1,8.511-1.024c4.05,1.046,7.417,3.969,9.818,7.4a53.409,53.409,0,0,1,5.5,11.25,24.373,24.373,0,0,1,12.658-16.326,22.58,22.58,0,0,1,20.538.3,20.641,20.641,0,0,1,5.251,4.136c.15.162.3.328.442.5a20.7,20.7,0,0,1,5.1,12.693A19.9,19.9,0,0,1,654.215,215.388Z" transform="translate(-514.709 -179.277)" fill="#f2f2f2"/><path d="M633.164,221.436h-.572c-.008-.128-.017-.254-.029-.381a42.73,42.73,0,0,0-1.25-7.384,45.521,45.521,0,0,0-7.3-15.336,43.574,43.574,0,0,0-12.485-11.524.271.271,0,0,1-.133-.2.285.285,0,0,1,.421-.3.414.414,0,0,1,.038.025,43.162,43.162,0,0,1,7.647,5.932,45.917,45.917,0,0,1,9.856,14.13,44.524,44.524,0,0,1,3.778,14.652C633.145,221.182,633.155,221.31,633.164,221.436Z" transform="translate(-532.962 -184.944)" fill="#fff"/><path d="M768.776,216.937l-.013,0c-.417.076-.837.156-1.252.242a56.582,56.582,0,0,0-9.975,3.029,58.863,58.863,0,0,0-9.245,4.765,59.812,59.812,0,0,0-8.282,6.305,58.616,58.616,0,0,0-7.051,7.647,56.7,56.7,0,0,0-4.31,6.492c-.072.126-.143.254-.214.381h-.654c.069-.128.139-.255.212-.381a57.167,57.167,0,0,1,5.333-7.878,59.25,59.25,0,0,1,7.3-7.577,60.583,60.583,0,0,1,8.459-6.153,59.442,59.442,0,0,1,9.439-4.605,56.632,56.632,0,0,1,9.807-2.768l.278-.051C768.968,216.325,769.121,216.863,768.776,216.937Z" transform="translate(-627.169 -209.311)" fill="#fff"/><path d="M269.535,338.454a6.015,6.015,0,0,0-.08-6.186,6.078,6.078,0,0,0-3.161-2.131,16.706,16.706,0,0,0-3.823-.6,12.8,12.8,0,0,0-3.823.12,4.59,4.59,0,0,0-3.062,2.121c-1.026,1.9-.091,4.344-.845,6.371-.692,1.86-2.66,2.947-4.6,3.386s-3.955.392-5.891.827-3.908,1.512-4.612,3.367a5.143,5.143,0,0,0,.415,4.156,10.705,10.705,0,0,0,2.837,3.2,10.347,10.347,0,0,0,5.747,2.618,8.328,8.328,0,0,0,6.076-2.518,16.968,16.968,0,0,0,3.606-5.672,8.682,8.682,0,0,1,2.209-3.624,7.727,7.727,0,0,1,2.887-1.211l1.15-.307a7.9,7.9,0,0,0,4.936-3.86Z" transform="translate(-231.856 -300.829)" fill="#212121"/><path d="M135.436,490.391H133.1l-1.112-9.014h3.449Z" transform="translate(-106.829 -389.621)" fill="#ffb8b8"/><path d="M117.013,525.162h4.507V528h-7.344A2.838,2.838,0,0,1,117.013,525.162Z" transform="translate(-92.413 -425.061)" fill="#212121"/><path d="M237.436,490.391H235.1l-1.112-9.014h3.449Z" transform="translate(-189.387 -389.621)" fill="#ffb8b8"/><path d="M219.013,525.162h4.507V528h-7.344A2.838,2.838,0,0,1,219.013,525.162Z" transform="translate(-174.971 -425.061)" fill="#212121"/><path d="M329.408,513.242a.93.93,0,0,1-.1-.005l-9.507-1.019a.894.894,0,0,1-.774-1.1l8.418-32.017a.9.9,0,0,1,.676-.666l7.809-2.177a.9.9,0,0,1,.867.283c5.021,5.663,8.8,18.217,11.67,34.04a.894.894,0,0,1-.767,1.046l-7.79.995a.892.892,0,0,1-.986-.691l-3.79-16.9a.7.7,0,0,0-1.36.016l-3.494,17.47A.889.889,0,0,1,329.408,513.242Z" transform="translate(-296.309 -419.637)" fill="#212121"/><circle cx="4.682" cy="4.682" r="4.682" transform="translate(26.971 32.658)" fill="#ffb8b8"/><path d="M349.23,423.366a.892.892,0,0,1-.862-.664l-2.816-10.581a3.2,3.2,0,0,1,1.927-3.805,13.327,13.327,0,0,1,6.42-.976h0c1.771.211,3.956,10.7,3.811,10.92l.7,2.1a.894.894,0,0,1-.656,1.156l-8.329,1.832A.9.9,0,0,1,349.23,423.366Z" transform="translate(-317.708 -363.808)" fill="#ccc"/><path d="M358.658,520.4a1.451,1.451,0,0,0-1.4-1.725l-1.623-4.893-1.658,2.1,1.8,4.324a1.458,1.458,0,0,0,2.89.19Z" transform="translate(-324.612 -450.024)" fill="#ffb8b8"/><path d="M460.514,472.66a1.451,1.451,0,0,0-2.17-.488l-4.3-2.844,0,2.679,4.083,2.29a1.458,1.458,0,0,0,2.39-1.637Z" transform="translate(-405.606 -414.041)" fill="#ffb8b8"/><path d="M339.95,439.489a.894.894,0,0,1-.849-.613l-3.8-8.047a4.65,4.65,0,0,1-.235-1.462l1.144-10.459a2.3,2.3,0,0,1,4.58-.277l-1.75,11.938,2.792,7.327a.892.892,0,0,1-.472,1l-1.006.5A.893.893,0,0,1,339.95,439.489Z" transform="translate(-309.306 -371.371)" fill="#ccc"/><path d="M394.164,423.923a.892.892,0,0,1-.4-.1l-7.565-3.821a4.646,4.646,0,0,1-1.2-.869l-7.384-7.408a2.3,2.3,0,0,1,3.048-3.43l8,8.883,6.34,4.026a.892.892,0,0,1,.368,1.039l-.357,1.067A.894.894,0,0,1,394.164,423.923Z" transform="translate(-343.204 -364.247)" fill="#ccc"/><path d="M338.061,349.514a5.452,5.452,0,0,0,3.22,2.026,5.694,5.694,0,0,0,3.824-.548,10.606,10.606,0,0,0,2.436-2.027,1.645,1.645,0,0,0,.621-1.105c-.024-.664-.822-1.027-1.507-1.172a10.757,10.757,0,0,0-6.678.751c-.93.432-1.9,1.214-1.76,2.185" transform="translate(-311.734 -314.595)" fill="#2f2e41"/><path d="M579.175,368.723H487.3a3.245,3.245,0,0,0-3.24,3.24v35.453a3.245,3.245,0,0,0,3.24,3.24h91.874a3.245,3.245,0,0,0,3.24-3.24V371.963A3.245,3.245,0,0,0,579.175,368.723Zm2.859,38.694a2.863,2.863,0,0,1-2.859,2.859H487.3a2.863,2.863,0,0,1-2.859-2.859V371.963A2.863,2.863,0,0,1,487.3,369.1h91.874a2.863,2.863,0,0,1,2.859,2.859Z" transform="translate(-429.905 -332.612)" fill="#212121"/><path d="M541.63,442.834a11.055,11.055,0,1,1,11.055-11.055A11.055,11.055,0,0,1,541.63,442.834Zm0-21.73A10.674,10.674,0,1,0,552.3,431.778,10.674,10.674,0,0,0,541.63,421.1Z" transform="translate(-467.553 -374.701)" fill="#212121"/><path d="M742.96,441.723H698.929a2.382,2.382,0,0,0-2.379,2.289.759.759,0,0,0,0,.093,2.386,2.386,0,0,0,2.383,2.383H742.96a2.383,2.383,0,0,0,0-4.765Z" transform="translate(-601.888 -391.698)" fill="#3AD289"/><path d="M742.96,490.723H698.929a2.382,2.382,0,0,0-2.379,2.289.757.757,0,0,0,0,.093,2.386,2.386,0,0,0,2.383,2.383H742.96a2.383,2.383,0,1,0,0-4.765Z" transform="translate(-601.888 -431.358)" fill="#3AD289"/><path d="M562.342,459.786a1.422,1.422,0,0,1-.856-.284l-.015-.012-3.222-2.467a1.431,1.431,0,1,1,1.741-2.273l2.087,1.6,4.932-6.432a1.432,1.432,0,0,1,2.007-.265l-.031.042.031-.041a1.433,1.433,0,0,1,.265,2.007l-5.8,7.566a1.432,1.432,0,0,1-1.139.559Z" transform="translate(-489.498 -397.878)" fill="#3AD289"/><path d="M272.752,719.1H200.13a.191.191,0,1,1,0-.381h72.622a.191.191,0,0,1,0,.381Z" transform="translate(-199.939 -615.899)" fill="#212121"/><path d="M760.119,322.176a37.784,37.784,0,0,0-11.979.27,38.569,38.569,0,0,0-11.279,3.943,37.206,37.206,0,0,0-5.629,3.719c-.287.23.12.632.4.4a36.941,36.941,0,0,1,10.252-5.763,38.055,38.055,0,0,1,11.449-2.323,36.42,36.42,0,0,1,6.629.3.3.3,0,0,0,.352-.2A.288.288,0,0,0,760.119,322.176Z" transform="translate(-629.883 -294.652)" fill="#fff"/></g></svg>